<mxfile host="app.diagrams.net" modified="2024-06-07T12:27:58.563Z" agent="Mozilla/5.0 (Windows NT 10.0; Win64; x64) AppleWebKit/537.36 (KHTML, like Gecko) Chrome/125.0.0.0 Safari/537.36" etag="xAzqy4ZPMQfsgBrIl4be" version="24.5.1" type="device">
  <diagram name="Page-1" id="q4_eVbPTg9fzblICVgL1">
    <mxGraphModel dx="1900" dy="570" grid="1" gridSize="10" guides="1" tooltips="1" connect="1" arrows="1" fold="1" page="1" pageScale="1" pageWidth="850" pageHeight="1100" math="0" shadow="0">
      <root>
        <mxCell id="0" />
        <mxCell id="1" parent="0" />
        <mxCell id="FCriQmf4aYKl-RQymjN2-42" style="edgeStyle=orthogonalEdgeStyle;rounded=0;orthogonalLoop=1;jettySize=auto;html=1;entryX=0;entryY=0.5;entryDx=0;entryDy=0;" parent="1" source="FCriQmf4aYKl-RQymjN2-7" target="FCriQmf4aYKl-RQymjN2-20" edge="1">
          <mxGeometry relative="1" as="geometry">
            <Array as="points">
              <mxPoint x="50" y="160" />
            </Array>
          </mxGeometry>
        </mxCell>
        <mxCell id="FCriQmf4aYKl-RQymjN2-43" style="edgeStyle=orthogonalEdgeStyle;rounded=0;orthogonalLoop=1;jettySize=auto;html=1;entryX=0;entryY=0.5;entryDx=0;entryDy=0;" parent="1" source="FCriQmf4aYKl-RQymjN2-7" target="FCriQmf4aYKl-RQymjN2-21" edge="1">
          <mxGeometry relative="1" as="geometry">
            <Array as="points">
              <mxPoint x="50" y="50" />
            </Array>
          </mxGeometry>
        </mxCell>
        <mxCell id="FCriQmf4aYKl-RQymjN2-44" style="edgeStyle=orthogonalEdgeStyle;rounded=0;orthogonalLoop=1;jettySize=auto;html=1;entryX=0;entryY=0.5;entryDx=0;entryDy=0;" parent="1" source="FCriQmf4aYKl-RQymjN2-7" target="FCriQmf4aYKl-RQymjN2-22" edge="1">
          <mxGeometry relative="1" as="geometry">
            <Array as="points">
              <mxPoint x="50" y="280" />
            </Array>
          </mxGeometry>
        </mxCell>
        <mxCell id="FCriQmf4aYKl-RQymjN2-48" style="edgeStyle=orthogonalEdgeStyle;rounded=0;orthogonalLoop=1;jettySize=auto;html=1;entryX=0;entryY=0.5;entryDx=0;entryDy=0;" parent="1" source="FCriQmf4aYKl-RQymjN2-7" target="FCriQmf4aYKl-RQymjN2-12" edge="1">
          <mxGeometry relative="1" as="geometry">
            <Array as="points">
              <mxPoint x="50" y="400" />
            </Array>
          </mxGeometry>
        </mxCell>
        <mxCell id="FCriQmf4aYKl-RQymjN2-50" style="edgeStyle=orthogonalEdgeStyle;rounded=0;orthogonalLoop=1;jettySize=auto;html=1;entryX=0;entryY=0.5;entryDx=0;entryDy=0;" parent="1" source="FCriQmf4aYKl-RQymjN2-7" target="FCriQmf4aYKl-RQymjN2-19" edge="1">
          <mxGeometry relative="1" as="geometry" />
        </mxCell>
        <mxCell id="FCriQmf4aYKl-RQymjN2-58" style="edgeStyle=orthogonalEdgeStyle;rounded=0;orthogonalLoop=1;jettySize=auto;html=1;entryX=0;entryY=0.5;entryDx=0;entryDy=0;" parent="1" source="FCriQmf4aYKl-RQymjN2-7" target="FCriQmf4aYKl-RQymjN2-15" edge="1">
          <mxGeometry relative="1" as="geometry">
            <Array as="points">
              <mxPoint x="50" y="340" />
              <mxPoint x="320" y="340" />
              <mxPoint x="320" y="400" />
            </Array>
          </mxGeometry>
        </mxCell>
        <mxCell id="FCriQmf4aYKl-RQymjN2-59" style="edgeStyle=orthogonalEdgeStyle;rounded=0;orthogonalLoop=1;jettySize=auto;html=1;entryX=0;entryY=0.5;entryDx=0;entryDy=0;" parent="1" source="FCriQmf4aYKl-RQymjN2-7" target="FCriQmf4aYKl-RQymjN2-14" edge="1">
          <mxGeometry relative="1" as="geometry">
            <Array as="points">
              <mxPoint x="50" y="340" />
              <mxPoint x="320" y="340" />
              <mxPoint x="320" y="280" />
            </Array>
          </mxGeometry>
        </mxCell>
        <mxCell id="FCriQmf4aYKl-RQymjN2-63" style="edgeStyle=orthogonalEdgeStyle;rounded=0;orthogonalLoop=1;jettySize=auto;html=1;entryX=0;entryY=0.5;entryDx=0;entryDy=0;" parent="1" source="FCriQmf4aYKl-RQymjN2-7" target="FCriQmf4aYKl-RQymjN2-13" edge="1">
          <mxGeometry relative="1" as="geometry">
            <Array as="points">
              <mxPoint x="50" y="110" />
              <mxPoint x="320" y="110" />
              <mxPoint x="320" y="160" />
            </Array>
          </mxGeometry>
        </mxCell>
        <mxCell id="FCriQmf4aYKl-RQymjN2-64" style="edgeStyle=orthogonalEdgeStyle;rounded=0;orthogonalLoop=1;jettySize=auto;html=1;entryX=0;entryY=0.5;entryDx=0;entryDy=0;" parent="1" source="FCriQmf4aYKl-RQymjN2-7" target="FCriQmf4aYKl-RQymjN2-16" edge="1">
          <mxGeometry relative="1" as="geometry">
            <Array as="points">
              <mxPoint x="50" y="110" />
              <mxPoint x="320" y="110" />
              <mxPoint x="320" y="50" />
            </Array>
          </mxGeometry>
        </mxCell>
        <mxCell id="FCriQmf4aYKl-RQymjN2-65" style="edgeStyle=orthogonalEdgeStyle;rounded=0;orthogonalLoop=1;jettySize=auto;html=1;entryX=0;entryY=0.5;entryDx=0;entryDy=0;" parent="1" source="FCriQmf4aYKl-RQymjN2-7" target="FCriQmf4aYKl-RQymjN2-17" edge="1">
          <mxGeometry relative="1" as="geometry">
            <Array as="points">
              <mxPoint x="50" y="340" />
              <mxPoint x="320" y="340" />
              <mxPoint x="320" y="640" />
            </Array>
          </mxGeometry>
        </mxCell>
        <mxCell id="FCriQmf4aYKl-RQymjN2-66" style="edgeStyle=orthogonalEdgeStyle;rounded=0;orthogonalLoop=1;jettySize=auto;html=1;entryX=0;entryY=0.5;entryDx=0;entryDy=0;" parent="1" source="FCriQmf4aYKl-RQymjN2-7" target="FCriQmf4aYKl-RQymjN2-18" edge="1">
          <mxGeometry relative="1" as="geometry">
            <Array as="points">
              <mxPoint x="50" y="340" />
              <mxPoint x="320" y="340" />
              <mxPoint x="320" y="525" />
            </Array>
          </mxGeometry>
        </mxCell>
        <mxCell id="FCriQmf4aYKl-RQymjN2-7" value="" style="sketch=0;outlineConnect=0;fontColor=#232F3E;gradientColor=none;fillColor=#232F3D;strokeColor=none;dashed=0;verticalLabelPosition=bottom;verticalAlign=top;align=center;html=1;fontSize=12;fontStyle=0;aspect=fixed;pointerEvents=1;shape=mxgraph.aws4.user;" parent="1" vertex="1">
          <mxGeometry x="25" y="515" width="50" height="50" as="geometry" />
        </mxCell>
        <mxCell id="FCriQmf4aYKl-RQymjN2-67" style="edgeStyle=orthogonalEdgeStyle;rounded=0;orthogonalLoop=1;jettySize=auto;html=1;entryX=1;entryY=0.5;entryDx=0;entryDy=0;strokeColor=#33FFFF;" parent="1" source="FCriQmf4aYKl-RQymjN2-8" target="FCriQmf4aYKl-RQymjN2-24" edge="1">
          <mxGeometry relative="1" as="geometry">
            <Array as="points">
              <mxPoint x="320" y="1025" />
              <mxPoint x="320" y="760" />
            </Array>
          </mxGeometry>
        </mxCell>
        <mxCell id="FCriQmf4aYKl-RQymjN2-68" style="edgeStyle=orthogonalEdgeStyle;rounded=0;orthogonalLoop=1;jettySize=auto;html=1;entryX=0;entryY=0.5;entryDx=0;entryDy=0;strokeColor=#33FFFF;" parent="1" source="FCriQmf4aYKl-RQymjN2-8" target="FCriQmf4aYKl-RQymjN2-28" edge="1">
          <mxGeometry relative="1" as="geometry">
            <Array as="points">
              <mxPoint x="560" y="1025" />
              <mxPoint x="560" y="910" />
            </Array>
          </mxGeometry>
        </mxCell>
        <mxCell id="FCriQmf4aYKl-RQymjN2-69" style="edgeStyle=orthogonalEdgeStyle;rounded=0;orthogonalLoop=1;jettySize=auto;html=1;entryX=0;entryY=0.5;entryDx=0;entryDy=0;strokeColor=#33FFFF;" parent="1" source="FCriQmf4aYKl-RQymjN2-8" target="FCriQmf4aYKl-RQymjN2-31" edge="1">
          <mxGeometry relative="1" as="geometry">
            <Array as="points">
              <mxPoint x="320" y="1025" />
              <mxPoint x="320" y="760" />
            </Array>
          </mxGeometry>
        </mxCell>
        <mxCell id="FCriQmf4aYKl-RQymjN2-70" style="edgeStyle=orthogonalEdgeStyle;rounded=0;orthogonalLoop=1;jettySize=auto;html=1;entryX=1;entryY=0.5;entryDx=0;entryDy=0;strokeColor=#33FFFF;" parent="1" source="FCriQmf4aYKl-RQymjN2-8" target="FCriQmf4aYKl-RQymjN2-17" edge="1">
          <mxGeometry relative="1" as="geometry">
            <Array as="points">
              <mxPoint x="560" y="1025" />
              <mxPoint x="560" y="640" />
            </Array>
          </mxGeometry>
        </mxCell>
        <mxCell id="FCriQmf4aYKl-RQymjN2-71" style="edgeStyle=orthogonalEdgeStyle;rounded=0;orthogonalLoop=1;jettySize=auto;html=1;entryX=0;entryY=0.5;entryDx=0;entryDy=0;strokeColor=#33FFFF;" parent="1" source="FCriQmf4aYKl-RQymjN2-8" target="FCriQmf4aYKl-RQymjN2-25" edge="1">
          <mxGeometry relative="1" as="geometry">
            <Array as="points">
              <mxPoint x="560" y="1025" />
              <mxPoint x="560" y="760" />
            </Array>
          </mxGeometry>
        </mxCell>
        <mxCell id="FCriQmf4aYKl-RQymjN2-72" style="edgeStyle=orthogonalEdgeStyle;rounded=0;orthogonalLoop=1;jettySize=auto;html=1;entryX=0;entryY=0.5;entryDx=0;entryDy=0;strokeColor=#33FFFF;" parent="1" source="FCriQmf4aYKl-RQymjN2-8" target="FCriQmf4aYKl-RQymjN2-27" edge="1">
          <mxGeometry relative="1" as="geometry">
            <Array as="points">
              <mxPoint x="560" y="1025" />
              <mxPoint x="560" y="640" />
            </Array>
          </mxGeometry>
        </mxCell>
        <mxCell id="FCriQmf4aYKl-RQymjN2-73" style="edgeStyle=orthogonalEdgeStyle;rounded=0;orthogonalLoop=1;jettySize=auto;html=1;entryX=0;entryY=0.5;entryDx=0;entryDy=0;strokeColor=#33FFFF;" parent="1" source="FCriQmf4aYKl-RQymjN2-8" target="FCriQmf4aYKl-RQymjN2-33" edge="1">
          <mxGeometry relative="1" as="geometry">
            <Array as="points">
              <mxPoint x="560" y="1025" />
              <mxPoint x="560" y="525" />
            </Array>
          </mxGeometry>
        </mxCell>
        <mxCell id="FCriQmf4aYKl-RQymjN2-74" style="edgeStyle=orthogonalEdgeStyle;rounded=0;orthogonalLoop=1;jettySize=auto;html=1;entryX=0;entryY=0.5;entryDx=0;entryDy=0;strokeColor=#33FFFF;" parent="1" source="FCriQmf4aYKl-RQymjN2-8" target="FCriQmf4aYKl-RQymjN2-30" edge="1">
          <mxGeometry relative="1" as="geometry">
            <Array as="points">
              <mxPoint x="560" y="1025" />
              <mxPoint x="560" y="400" />
            </Array>
          </mxGeometry>
        </mxCell>
        <mxCell id="FCriQmf4aYKl-RQymjN2-75" style="edgeStyle=orthogonalEdgeStyle;rounded=0;orthogonalLoop=1;jettySize=auto;html=1;entryX=0;entryY=0.5;entryDx=0;entryDy=0;strokeColor=#33FFFF;" parent="1" source="FCriQmf4aYKl-RQymjN2-8" target="FCriQmf4aYKl-RQymjN2-32" edge="1">
          <mxGeometry relative="1" as="geometry">
            <Array as="points">
              <mxPoint x="560" y="1025" />
              <mxPoint x="560" y="280" />
            </Array>
          </mxGeometry>
        </mxCell>
        <mxCell id="FCriQmf4aYKl-RQymjN2-76" style="edgeStyle=orthogonalEdgeStyle;rounded=0;orthogonalLoop=1;jettySize=auto;html=1;entryX=1;entryY=0.5;entryDx=0;entryDy=0;strokeColor=#33FFFF;" parent="1" source="FCriQmf4aYKl-RQymjN2-8" target="FCriQmf4aYKl-RQymjN2-18" edge="1">
          <mxGeometry relative="1" as="geometry">
            <Array as="points">
              <mxPoint x="560" y="1025" />
              <mxPoint x="560" y="525" />
            </Array>
          </mxGeometry>
        </mxCell>
        <mxCell id="FCriQmf4aYKl-RQymjN2-77" style="edgeStyle=orthogonalEdgeStyle;rounded=0;orthogonalLoop=1;jettySize=auto;html=1;entryX=1;entryY=0.5;entryDx=0;entryDy=0;strokeColor=#33FFFF;" parent="1" source="FCriQmf4aYKl-RQymjN2-8" target="FCriQmf4aYKl-RQymjN2-15" edge="1">
          <mxGeometry relative="1" as="geometry">
            <Array as="points">
              <mxPoint x="560" y="1025" />
              <mxPoint x="560" y="400" />
            </Array>
          </mxGeometry>
        </mxCell>
        <mxCell id="FCriQmf4aYKl-RQymjN2-78" style="edgeStyle=orthogonalEdgeStyle;rounded=0;orthogonalLoop=1;jettySize=auto;html=1;entryX=1;entryY=0.5;entryDx=0;entryDy=0;strokeColor=#33FFFF;" parent="1" source="FCriQmf4aYKl-RQymjN2-8" target="FCriQmf4aYKl-RQymjN2-14" edge="1">
          <mxGeometry relative="1" as="geometry">
            <Array as="points">
              <mxPoint x="560" y="1025" />
              <mxPoint x="560" y="280" />
            </Array>
          </mxGeometry>
        </mxCell>
        <mxCell id="FCriQmf4aYKl-RQymjN2-79" style="edgeStyle=orthogonalEdgeStyle;rounded=0;orthogonalLoop=1;jettySize=auto;html=1;entryX=1;entryY=0.5;entryDx=0;entryDy=0;strokeColor=#33FFFF;" parent="1" source="FCriQmf4aYKl-RQymjN2-8" target="FCriQmf4aYKl-RQymjN2-13" edge="1">
          <mxGeometry relative="1" as="geometry">
            <Array as="points">
              <mxPoint x="560" y="1025" />
              <mxPoint x="560" y="160" />
            </Array>
          </mxGeometry>
        </mxCell>
        <mxCell id="FCriQmf4aYKl-RQymjN2-80" style="edgeStyle=orthogonalEdgeStyle;rounded=0;orthogonalLoop=1;jettySize=auto;html=1;entryX=1;entryY=0.5;entryDx=0;entryDy=0;strokeColor=#33FFFF;" parent="1" source="FCriQmf4aYKl-RQymjN2-8" target="FCriQmf4aYKl-RQymjN2-16" edge="1">
          <mxGeometry relative="1" as="geometry">
            <Array as="points">
              <mxPoint x="560" y="1025" />
              <mxPoint x="560" y="50" />
            </Array>
          </mxGeometry>
        </mxCell>
        <mxCell id="FCriQmf4aYKl-RQymjN2-82" style="edgeStyle=orthogonalEdgeStyle;rounded=0;orthogonalLoop=1;jettySize=auto;html=1;entryX=1;entryY=0.5;entryDx=0;entryDy=0;strokeColor=#33FFFF;" parent="1" source="FCriQmf4aYKl-RQymjN2-8" target="FCriQmf4aYKl-RQymjN2-29" edge="1">
          <mxGeometry relative="1" as="geometry">
            <Array as="points">
              <mxPoint x="320" y="1025" />
              <mxPoint x="320" y="910" />
            </Array>
          </mxGeometry>
        </mxCell>
        <mxCell id="FCriQmf4aYKl-RQymjN2-83" style="edgeStyle=orthogonalEdgeStyle;rounded=0;orthogonalLoop=1;jettySize=auto;html=1;entryX=1;entryY=0.5;entryDx=0;entryDy=0;strokeColor=#33FFFF;" parent="1" source="FCriQmf4aYKl-RQymjN2-8" target="FCriQmf4aYKl-RQymjN2-19" edge="1">
          <mxGeometry relative="1" as="geometry">
            <Array as="points">
              <mxPoint x="320" y="1025" />
              <mxPoint x="320" y="515" />
            </Array>
          </mxGeometry>
        </mxCell>
        <mxCell id="FCriQmf4aYKl-RQymjN2-84" style="edgeStyle=orthogonalEdgeStyle;rounded=0;orthogonalLoop=1;jettySize=auto;html=1;entryX=1;entryY=0.5;entryDx=0;entryDy=0;strokeColor=#33FFFF;" parent="1" source="FCriQmf4aYKl-RQymjN2-8" target="FCriQmf4aYKl-RQymjN2-12" edge="1">
          <mxGeometry relative="1" as="geometry">
            <Array as="points">
              <mxPoint x="320" y="1025" />
              <mxPoint x="320" y="400" />
            </Array>
          </mxGeometry>
        </mxCell>
        <mxCell id="FCriQmf4aYKl-RQymjN2-8" value="" style="sketch=0;outlineConnect=0;fontColor=#232F3E;gradientColor=none;fillColor=#232F3D;strokeColor=none;dashed=0;verticalLabelPosition=bottom;verticalAlign=top;align=center;html=1;fontSize=12;fontStyle=0;aspect=fixed;pointerEvents=1;shape=mxgraph.aws4.user;" parent="1" vertex="1">
          <mxGeometry x="410" y="1000" width="50" height="50" as="geometry" />
        </mxCell>
        <mxCell id="FCriQmf4aYKl-RQymjN2-46" style="edgeStyle=orthogonalEdgeStyle;rounded=0;orthogonalLoop=1;jettySize=auto;html=1;entryX=1;entryY=0.5;entryDx=0;entryDy=0;strokeColor=#FF3333;" parent="1" source="FCriQmf4aYKl-RQymjN2-9" target="FCriQmf4aYKl-RQymjN2-34" edge="1">
          <mxGeometry relative="1" as="geometry">
            <Array as="points">
              <mxPoint x="800" y="160" />
            </Array>
          </mxGeometry>
        </mxCell>
        <mxCell id="FCriQmf4aYKl-RQymjN2-47" style="edgeStyle=orthogonalEdgeStyle;rounded=0;orthogonalLoop=1;jettySize=auto;html=1;entryX=1;entryY=0.5;entryDx=0;entryDy=0;fontColor=#FF3333;strokeColor=#FF3333;" parent="1" source="FCriQmf4aYKl-RQymjN2-9" target="FCriQmf4aYKl-RQymjN2-35" edge="1">
          <mxGeometry relative="1" as="geometry">
            <mxPoint x="800" y="160" as="targetPoint" />
            <Array as="points">
              <mxPoint x="800" y="50" />
            </Array>
          </mxGeometry>
        </mxCell>
        <mxCell id="FCriQmf4aYKl-RQymjN2-53" style="edgeStyle=orthogonalEdgeStyle;rounded=0;orthogonalLoop=1;jettySize=auto;html=1;entryX=1;entryY=0.5;entryDx=0;entryDy=0;strokeColor=#FF3333;" parent="1" source="FCriQmf4aYKl-RQymjN2-9" target="FCriQmf4aYKl-RQymjN2-33" edge="1">
          <mxGeometry relative="1" as="geometry" />
        </mxCell>
        <mxCell id="FCriQmf4aYKl-RQymjN2-88" style="edgeStyle=orthogonalEdgeStyle;rounded=0;orthogonalLoop=1;jettySize=auto;html=1;entryX=1;entryY=0.25;entryDx=0;entryDy=0;strokeColor=#FF0000;" parent="1" source="FCriQmf4aYKl-RQymjN2-9" target="FCriQmf4aYKl-RQymjN2-15" edge="1">
          <mxGeometry relative="1" as="geometry">
            <Array as="points">
              <mxPoint x="800" y="460" />
              <mxPoint x="570" y="460" />
              <mxPoint x="570" y="380" />
            </Array>
          </mxGeometry>
        </mxCell>
        <mxCell id="FCriQmf4aYKl-RQymjN2-89" style="edgeStyle=orthogonalEdgeStyle;rounded=0;orthogonalLoop=1;jettySize=auto;html=1;entryX=1;entryY=0.25;entryDx=0;entryDy=0;strokeColor=#FF0000;" parent="1" source="FCriQmf4aYKl-RQymjN2-9" target="FCriQmf4aYKl-RQymjN2-14" edge="1">
          <mxGeometry relative="1" as="geometry">
            <Array as="points">
              <mxPoint x="800" y="460" />
              <mxPoint x="570" y="460" />
              <mxPoint x="570" y="260" />
            </Array>
          </mxGeometry>
        </mxCell>
        <mxCell id="FCriQmf4aYKl-RQymjN2-90" style="edgeStyle=orthogonalEdgeStyle;rounded=0;orthogonalLoop=1;jettySize=auto;html=1;entryX=1;entryY=0.25;entryDx=0;entryDy=0;strokeColor=#FF0000;" parent="1" source="FCriQmf4aYKl-RQymjN2-9" target="FCriQmf4aYKl-RQymjN2-13" edge="1">
          <mxGeometry relative="1" as="geometry">
            <Array as="points">
              <mxPoint x="800" y="460" />
              <mxPoint x="570" y="460" />
              <mxPoint x="570" y="140" />
            </Array>
          </mxGeometry>
        </mxCell>
        <mxCell id="FCriQmf4aYKl-RQymjN2-91" style="edgeStyle=orthogonalEdgeStyle;rounded=0;orthogonalLoop=1;jettySize=auto;html=1;entryX=1;entryY=0.25;entryDx=0;entryDy=0;strokeColor=#FF0000;" parent="1" source="FCriQmf4aYKl-RQymjN2-9" target="FCriQmf4aYKl-RQymjN2-16" edge="1">
          <mxGeometry relative="1" as="geometry">
            <Array as="points">
              <mxPoint x="800" y="460" />
              <mxPoint x="570" y="460" />
              <mxPoint x="570" y="30" />
            </Array>
          </mxGeometry>
        </mxCell>
        <mxCell id="FCriQmf4aYKl-RQymjN2-92" style="edgeStyle=orthogonalEdgeStyle;rounded=0;orthogonalLoop=1;jettySize=auto;html=1;entryX=1;entryY=0.5;entryDx=0;entryDy=0;strokeColor=#FF0000;" parent="1" source="FCriQmf4aYKl-RQymjN2-9" target="FCriQmf4aYKl-RQymjN2-32" edge="1">
          <mxGeometry relative="1" as="geometry">
            <Array as="points">
              <mxPoint x="800" y="280" />
            </Array>
          </mxGeometry>
        </mxCell>
        <mxCell id="FCriQmf4aYKl-RQymjN2-93" style="edgeStyle=orthogonalEdgeStyle;rounded=0;orthogonalLoop=1;jettySize=auto;html=1;entryX=1;entryY=0.25;entryDx=0;entryDy=0;strokeColor=#FF0000;" parent="1" source="FCriQmf4aYKl-RQymjN2-9" target="FCriQmf4aYKl-RQymjN2-18" edge="1">
          <mxGeometry relative="1" as="geometry">
            <Array as="points">
              <mxPoint x="800" y="460" />
              <mxPoint x="570" y="460" />
              <mxPoint x="570" y="505" />
            </Array>
          </mxGeometry>
        </mxCell>
        <mxCell id="FCriQmf4aYKl-RQymjN2-94" style="edgeStyle=orthogonalEdgeStyle;rounded=0;orthogonalLoop=1;jettySize=auto;html=1;entryX=1;entryY=0.25;entryDx=0;entryDy=0;strokeColor=#FF0000;" parent="1" source="FCriQmf4aYKl-RQymjN2-9" target="FCriQmf4aYKl-RQymjN2-17" edge="1">
          <mxGeometry relative="1" as="geometry">
            <Array as="points">
              <mxPoint x="800" y="460" />
              <mxPoint x="570" y="460" />
              <mxPoint x="570" y="620" />
            </Array>
          </mxGeometry>
        </mxCell>
        <mxCell id="FCriQmf4aYKl-RQymjN2-95" style="edgeStyle=orthogonalEdgeStyle;rounded=0;orthogonalLoop=1;jettySize=auto;html=1;entryX=1;entryY=0.25;entryDx=0;entryDy=0;strokeColor=#FF0000;" parent="1" source="FCriQmf4aYKl-RQymjN2-9" target="FCriQmf4aYKl-RQymjN2-31" edge="1">
          <mxGeometry relative="1" as="geometry">
            <Array as="points">
              <mxPoint x="800" y="460" />
              <mxPoint x="570" y="460" />
              <mxPoint x="570" y="740" />
            </Array>
          </mxGeometry>
        </mxCell>
        <mxCell id="FCriQmf4aYKl-RQymjN2-96" style="edgeStyle=orthogonalEdgeStyle;rounded=0;orthogonalLoop=1;jettySize=auto;html=1;entryX=1;entryY=0.5;entryDx=0;entryDy=0;strokeColor=#FF0000;" parent="1" source="FCriQmf4aYKl-RQymjN2-9" target="FCriQmf4aYKl-RQymjN2-30" edge="1">
          <mxGeometry relative="1" as="geometry">
            <Array as="points">
              <mxPoint x="800" y="400" />
            </Array>
          </mxGeometry>
        </mxCell>
        <mxCell id="FCriQmf4aYKl-RQymjN2-97" style="edgeStyle=orthogonalEdgeStyle;rounded=0;orthogonalLoop=1;jettySize=auto;html=1;entryX=1;entryY=0.25;entryDx=0;entryDy=0;strokeColor=#FF0000;" parent="1" source="FCriQmf4aYKl-RQymjN2-9" target="FCriQmf4aYKl-RQymjN2-12" edge="1">
          <mxGeometry relative="1" as="geometry">
            <Array as="points">
              <mxPoint x="800" y="460" />
              <mxPoint x="330" y="460" />
              <mxPoint x="330" y="380" />
            </Array>
          </mxGeometry>
        </mxCell>
        <mxCell id="FCriQmf4aYKl-RQymjN2-98" style="edgeStyle=orthogonalEdgeStyle;rounded=0;orthogonalLoop=1;jettySize=auto;html=1;entryX=1;entryY=0.25;entryDx=0;entryDy=0;strokeColor=#FF0000;" parent="1" source="FCriQmf4aYKl-RQymjN2-9" target="FCriQmf4aYKl-RQymjN2-19" edge="1">
          <mxGeometry relative="1" as="geometry">
            <Array as="points">
              <mxPoint x="800" y="460" />
              <mxPoint x="330" y="460" />
              <mxPoint x="330" y="495" />
            </Array>
          </mxGeometry>
        </mxCell>
        <mxCell id="FCriQmf4aYKl-RQymjN2-9" value="" style="sketch=0;outlineConnect=0;fontColor=#232F3E;gradientColor=none;fillColor=#232F3D;strokeColor=none;dashed=0;verticalLabelPosition=bottom;verticalAlign=top;align=center;html=1;fontSize=12;fontStyle=0;aspect=fixed;pointerEvents=1;shape=mxgraph.aws4.user;" parent="1" vertex="1">
          <mxGeometry x="775" y="515" width="50" height="50" as="geometry" />
        </mxCell>
        <mxCell id="FCriQmf4aYKl-RQymjN2-109" style="edgeStyle=orthogonalEdgeStyle;rounded=0;orthogonalLoop=1;jettySize=auto;html=1;exitX=0;exitY=1;exitDx=0;exitDy=0;entryX=1;entryY=0;entryDx=0;entryDy=0;strokeColor=#0000FF;dashed=1;" parent="1" source="FCriQmf4aYKl-RQymjN2-13" target="FCriQmf4aYKl-RQymjN2-12" edge="1">
          <mxGeometry relative="1" as="geometry">
            <Array as="points">
              <mxPoint x="310" y="200" />
              <mxPoint x="310" y="360" />
            </Array>
          </mxGeometry>
        </mxCell>
        <mxCell id="FCriQmf4aYKl-RQymjN2-110" value="&amp;lt;&amp;lt;extend&amp;gt;&amp;gt;" style="edgeLabel;html=1;align=center;verticalAlign=middle;resizable=0;points=[];fontSize=13;fontColor=#0000FF;" parent="FCriQmf4aYKl-RQymjN2-109" vertex="1" connectable="0">
          <mxGeometry x="0.1937" relative="1" as="geometry">
            <mxPoint x="-40" y="-79" as="offset" />
          </mxGeometry>
        </mxCell>
        <mxCell id="FCriQmf4aYKl-RQymjN2-117" style="edgeStyle=orthogonalEdgeStyle;rounded=0;orthogonalLoop=1;jettySize=auto;html=1;exitX=0;exitY=0;exitDx=0;exitDy=0;entryX=1;entryY=1;entryDx=0;entryDy=0;dashed=1;strokeColor=#0000FF;" parent="1" source="FCriQmf4aYKl-RQymjN2-28" target="FCriQmf4aYKl-RQymjN2-12" edge="1">
          <mxGeometry relative="1" as="geometry">
            <Array as="points">
              <mxPoint x="610" y="850" />
              <mxPoint x="310" y="850" />
              <mxPoint x="310" y="440" />
            </Array>
          </mxGeometry>
        </mxCell>
        <mxCell id="FCriQmf4aYKl-RQymjN2-12" value="Vizualizare produse recomandate" style="shape=ext;double=1;rounded=0;whiteSpace=wrap;html=1;" parent="1" vertex="1">
          <mxGeometry x="140" y="360" width="120" height="80" as="geometry" />
        </mxCell>
        <mxCell id="FCriQmf4aYKl-RQymjN2-13" value="Vizualizare produs individual" style="shape=ext;double=1;rounded=0;whiteSpace=wrap;html=1;" parent="1" vertex="1">
          <mxGeometry x="375" y="120" width="120" height="80" as="geometry" />
        </mxCell>
        <mxCell id="FCriQmf4aYKl-RQymjN2-118" style="edgeStyle=orthogonalEdgeStyle;rounded=0;orthogonalLoop=1;jettySize=auto;html=1;exitX=1;exitY=1;exitDx=0;exitDy=0;entryX=1;entryY=0;entryDx=0;entryDy=0;dashed=1;strokeColor=#0000FF;" parent="1" source="FCriQmf4aYKl-RQymjN2-13" target="FCriQmf4aYKl-RQymjN2-14" edge="1">
          <mxGeometry relative="1" as="geometry" />
        </mxCell>
        <mxCell id="FCriQmf4aYKl-RQymjN2-119" value="&amp;lt;&amp;lt;extend&amp;gt;&amp;gt;&lt;div style=&quot;font-size: 13px;&quot;&gt;&lt;br style=&quot;font-size: 13px;&quot;&gt;&lt;/div&gt;" style="edgeLabel;html=1;align=center;verticalAlign=middle;resizable=0;points=[];fontSize=13;fontColor=#0000FF;" parent="FCriQmf4aYKl-RQymjN2-118" vertex="1" connectable="0">
          <mxGeometry x="-0.16" y="1" relative="1" as="geometry">
            <mxPoint x="-44" y="3" as="offset" />
          </mxGeometry>
        </mxCell>
        <mxCell id="FCriQmf4aYKl-RQymjN2-120" style="edgeStyle=orthogonalEdgeStyle;rounded=0;orthogonalLoop=1;jettySize=auto;html=1;exitX=0;exitY=0;exitDx=0;exitDy=0;entryX=1;entryY=1;entryDx=0;entryDy=0;dashed=1;strokeColor=#0000FF;" parent="1" source="FCriQmf4aYKl-RQymjN2-28" target="FCriQmf4aYKl-RQymjN2-14" edge="1">
          <mxGeometry relative="1" as="geometry">
            <Array as="points">
              <mxPoint x="550" y="870" />
              <mxPoint x="550" y="320" />
            </Array>
          </mxGeometry>
        </mxCell>
        <mxCell id="FCriQmf4aYKl-RQymjN2-121" value="&amp;lt;&amp;lt;extend&amp;gt;&amp;gt;" style="edgeLabel;html=1;align=center;verticalAlign=middle;resizable=0;points=[];fontColor=#3333FF;fontSize=13;" parent="FCriQmf4aYKl-RQymjN2-120" vertex="1" connectable="0">
          <mxGeometry x="-0.0791" y="-2" relative="1" as="geometry">
            <mxPoint x="-28" y="-149" as="offset" />
          </mxGeometry>
        </mxCell>
        <mxCell id="FCriQmf4aYKl-RQymjN2-14" value="Căutarea produselor după cuvinte cheie" style="shape=ext;double=1;rounded=0;whiteSpace=wrap;html=1;" parent="1" vertex="1">
          <mxGeometry x="375" y="240" width="120" height="80" as="geometry" />
        </mxCell>
        <mxCell id="FCriQmf4aYKl-RQymjN2-15" value="Filtrarea produselor în funcție de categorie / subcategorie" style="shape=ext;double=1;rounded=0;whiteSpace=wrap;html=1;" parent="1" vertex="1">
          <mxGeometry x="375" y="360" width="120" height="80" as="geometry" />
        </mxCell>
        <mxCell id="FCriQmf4aYKl-RQymjN2-16" value="Utilizare chatbot" style="shape=ext;double=1;rounded=0;whiteSpace=wrap;html=1;" parent="1" vertex="1">
          <mxGeometry x="375" y="10" width="120" height="80" as="geometry" />
        </mxCell>
        <mxCell id="FCriQmf4aYKl-RQymjN2-17" value="Vizualizarea profilurilor utilizatorilor înregistrați pe platformă" style="shape=ext;double=1;rounded=0;whiteSpace=wrap;html=1;" parent="1" vertex="1">
          <mxGeometry x="375" y="600" width="120" height="80" as="geometry" />
        </mxCell>
        <mxCell id="FCriQmf4aYKl-RQymjN2-129" style="edgeStyle=orthogonalEdgeStyle;rounded=0;orthogonalLoop=1;jettySize=auto;html=1;exitX=0;exitY=0;exitDx=0;exitDy=0;entryX=0;entryY=1;entryDx=0;entryDy=0;strokeColor=#0000FF;dashed=1;" parent="1" source="FCriQmf4aYKl-RQymjN2-28" target="FCriQmf4aYKl-RQymjN2-15" edge="1">
          <mxGeometry relative="1" as="geometry">
            <Array as="points">
              <mxPoint x="610" y="860" />
              <mxPoint x="300" y="860" />
              <mxPoint x="300" y="440" />
            </Array>
          </mxGeometry>
        </mxCell>
        <mxCell id="FCriQmf4aYKl-RQymjN2-18" value="Filtrarea produselor după criterii" style="shape=ext;double=1;rounded=0;whiteSpace=wrap;html=1;" parent="1" vertex="1">
          <mxGeometry x="375" y="485" width="120" height="80" as="geometry" />
        </mxCell>
        <mxCell id="FCriQmf4aYKl-RQymjN2-99" style="edgeStyle=orthogonalEdgeStyle;rounded=0;orthogonalLoop=1;jettySize=auto;html=1;exitX=1;exitY=1;exitDx=0;exitDy=0;entryX=0;entryY=0;entryDx=0;entryDy=0;strokeWidth=1;dashed=1;strokeColor=#0000FF;" parent="1" source="FCriQmf4aYKl-RQymjN2-19" target="FCriQmf4aYKl-RQymjN2-17" edge="1">
          <mxGeometry relative="1" as="geometry" />
        </mxCell>
        <mxCell id="FCriQmf4aYKl-RQymjN2-100" value="&amp;lt;&amp;lt;include&amp;gt;&amp;gt;" style="edgeLabel;html=1;align=center;verticalAlign=middle;resizable=0;points=[];fontSize=13;fontColor=#0000FF;" parent="FCriQmf4aYKl-RQymjN2-99" vertex="1" connectable="0">
          <mxGeometry x="-0.2978" y="1" relative="1" as="geometry">
            <mxPoint x="-34" y="9" as="offset" />
          </mxGeometry>
        </mxCell>
        <mxCell id="FCriQmf4aYKl-RQymjN2-111" style="edgeStyle=orthogonalEdgeStyle;rounded=0;orthogonalLoop=1;jettySize=auto;html=1;exitX=0;exitY=1;exitDx=0;exitDy=0;entryX=1;entryY=0;entryDx=0;entryDy=0;dashed=1;strokeColor=#0000FF;" parent="1" source="FCriQmf4aYKl-RQymjN2-13" target="FCriQmf4aYKl-RQymjN2-19" edge="1">
          <mxGeometry relative="1" as="geometry">
            <Array as="points">
              <mxPoint x="310" y="200" />
              <mxPoint x="310" y="475" />
            </Array>
          </mxGeometry>
        </mxCell>
        <mxCell id="FCriQmf4aYKl-RQymjN2-112" style="edgeStyle=orthogonalEdgeStyle;rounded=0;orthogonalLoop=1;jettySize=auto;html=1;exitX=0;exitY=0;exitDx=0;exitDy=0;entryX=0;entryY=0;entryDx=0;entryDy=0;dashed=1;strokeColor=#0000FF;" parent="1" edge="1">
          <mxGeometry relative="1" as="geometry">
            <mxPoint x="610" y="870" as="sourcePoint" />
            <mxPoint x="260" y="540" as="targetPoint" />
            <Array as="points">
              <mxPoint x="610" y="840" />
              <mxPoint x="310" y="840" />
              <mxPoint x="310" y="540" />
            </Array>
          </mxGeometry>
        </mxCell>
        <mxCell id="FCriQmf4aYKl-RQymjN2-113" value="&amp;lt;&amp;lt;extend&amp;gt;&amp;gt;" style="edgeLabel;html=1;align=center;verticalAlign=middle;resizable=0;points=[];fontSize=12;fontColor=#0000FF;" parent="FCriQmf4aYKl-RQymjN2-112" vertex="1" connectable="0">
          <mxGeometry x="0.4859" y="3" relative="1" as="geometry">
            <mxPoint x="33" y="-60" as="offset" />
          </mxGeometry>
        </mxCell>
        <mxCell id="FCriQmf4aYKl-RQymjN2-19" value="Vizualizarea produselor adăugate de alți utilizatori" style="shape=ext;double=1;rounded=0;whiteSpace=wrap;html=1;" parent="1" vertex="1">
          <mxGeometry x="140" y="475" width="120" height="80" as="geometry" />
        </mxCell>
        <mxCell id="FCriQmf4aYKl-RQymjN2-20" value="Autentificare pe baza username-ului și parolei" style="shape=ext;double=1;rounded=0;whiteSpace=wrap;html=1;" parent="1" vertex="1">
          <mxGeometry x="140" y="120" width="120" height="80" as="geometry" />
        </mxCell>
        <mxCell id="FCriQmf4aYKl-RQymjN2-21" value="Înregistrare pe baza email-ului" style="shape=ext;double=1;rounded=0;whiteSpace=wrap;html=1;" parent="1" vertex="1">
          <mxGeometry x="140" y="10" width="120" height="80" as="geometry" />
        </mxCell>
        <mxCell id="FCriQmf4aYKl-RQymjN2-22" value="Autentificare / Înregistrare cu Oauth2 prin Google" style="shape=ext;double=1;rounded=0;whiteSpace=wrap;html=1;" parent="1" vertex="1">
          <mxGeometry x="140" y="240" width="120" height="80" as="geometry" />
        </mxCell>
        <mxCell id="FCriQmf4aYKl-RQymjN2-23" value="Recuperare cont pe baza email-ului" style="shape=ext;double=1;rounded=0;whiteSpace=wrap;html=1;" parent="1" vertex="1">
          <mxGeometry x="140" y="600" width="120" height="80" as="geometry" />
        </mxCell>
        <mxCell id="FCriQmf4aYKl-RQymjN2-24" value="Adăugarea unui nou produs" style="shape=ext;double=1;rounded=0;whiteSpace=wrap;html=1;" parent="1" vertex="1">
          <mxGeometry x="140" y="720" width="120" height="80" as="geometry" />
        </mxCell>
        <mxCell id="FCriQmf4aYKl-RQymjN2-122" style="edgeStyle=orthogonalEdgeStyle;rounded=0;orthogonalLoop=1;jettySize=auto;html=1;exitX=0;exitY=0;exitDx=0;exitDy=0;entryX=1;entryY=1;entryDx=0;entryDy=0;strokeColor=#0000FF;dashed=1;" parent="1" source="FCriQmf4aYKl-RQymjN2-25" target="FCriQmf4aYKl-RQymjN2-13" edge="1">
          <mxGeometry relative="1" as="geometry">
            <Array as="points">
              <mxPoint x="580" y="720" />
              <mxPoint x="580" y="200" />
            </Array>
          </mxGeometry>
        </mxCell>
        <mxCell id="FCriQmf4aYKl-RQymjN2-123" value="&amp;lt;&amp;lt;include&amp;gt;&amp;gt;" style="edgeLabel;html=1;align=center;verticalAlign=middle;resizable=0;points=[];fontSize=13;fontColor=#0000FF;" parent="FCriQmf4aYKl-RQymjN2-122" vertex="1" connectable="0">
          <mxGeometry x="-0.4558" y="-1" relative="1" as="geometry">
            <mxPoint x="39" y="3" as="offset" />
          </mxGeometry>
        </mxCell>
        <mxCell id="FCriQmf4aYKl-RQymjN2-25" value="Modificarea specificațiilor unui produs" style="shape=ext;double=1;rounded=0;whiteSpace=wrap;html=1;" parent="1" vertex="1">
          <mxGeometry x="610" y="720" width="120" height="80" as="geometry" />
        </mxCell>
        <mxCell id="FCriQmf4aYKl-RQymjN2-124" style="edgeStyle=orthogonalEdgeStyle;rounded=0;orthogonalLoop=1;jettySize=auto;html=1;exitX=0;exitY=0;exitDx=0;exitDy=0;strokeColor=#0000FF;dashed=1;" parent="1" source="FCriQmf4aYKl-RQymjN2-27" edge="1">
          <mxGeometry relative="1" as="geometry">
            <mxPoint x="500" y="200" as="targetPoint" />
            <Array as="points">
              <mxPoint x="580" y="600" />
              <mxPoint x="580" y="200" />
            </Array>
          </mxGeometry>
        </mxCell>
        <mxCell id="FCriQmf4aYKl-RQymjN2-27" value="Ștergerea unui produs" style="shape=ext;double=1;rounded=0;whiteSpace=wrap;html=1;" parent="1" vertex="1">
          <mxGeometry x="610" y="600" width="120" height="80" as="geometry" />
        </mxCell>
        <mxCell id="FCriQmf4aYKl-RQymjN2-28" value="Adăugarea produselor la lista de favorite" style="shape=ext;double=1;rounded=0;whiteSpace=wrap;html=1;" parent="1" vertex="1">
          <mxGeometry x="610" y="870" width="120" height="80" as="geometry" />
        </mxCell>
        <mxCell id="FCriQmf4aYKl-RQymjN2-114" style="edgeStyle=orthogonalEdgeStyle;rounded=0;orthogonalLoop=1;jettySize=auto;html=1;exitX=1;exitY=0;exitDx=0;exitDy=0;entryX=0;entryY=1;entryDx=0;entryDy=0;dashed=1;strokeColor=#0000FF;" parent="1" source="FCriQmf4aYKl-RQymjN2-29" target="FCriQmf4aYKl-RQymjN2-17" edge="1">
          <mxGeometry relative="1" as="geometry">
            <Array as="points">
              <mxPoint x="330" y="870" />
              <mxPoint x="330" y="680" />
            </Array>
          </mxGeometry>
        </mxCell>
        <mxCell id="FCriQmf4aYKl-RQymjN2-115" value="&amp;lt;&amp;lt;include&amp;gt;" style="edgeLabel;html=1;align=center;verticalAlign=middle;resizable=0;points=[];fontSize=13;fontColor=#0000FF;" parent="FCriQmf4aYKl-RQymjN2-114" vertex="1" connectable="0">
          <mxGeometry x="-0.1204" y="-1" relative="1" as="geometry">
            <mxPoint x="29" y="15" as="offset" />
          </mxGeometry>
        </mxCell>
        <mxCell id="FCriQmf4aYKl-RQymjN2-29" value="Vizualizarea produselor favorite" style="shape=ext;double=1;rounded=0;whiteSpace=wrap;html=1;" parent="1" vertex="1">
          <mxGeometry x="140" y="870" width="120" height="80" as="geometry" />
        </mxCell>
        <mxCell id="FCriQmf4aYKl-RQymjN2-125" style="edgeStyle=orthogonalEdgeStyle;rounded=0;orthogonalLoop=1;jettySize=auto;html=1;exitX=0;exitY=1;exitDx=0;exitDy=0;entryX=1;entryY=0;entryDx=0;entryDy=0;strokeColor=#0000FF;dashed=1;" parent="1" source="FCriQmf4aYKl-RQymjN2-30" target="FCriQmf4aYKl-RQymjN2-17" edge="1">
          <mxGeometry relative="1" as="geometry">
            <Array as="points">
              <mxPoint x="590" y="440" />
              <mxPoint x="590" y="590" />
              <mxPoint x="495" y="590" />
            </Array>
          </mxGeometry>
        </mxCell>
        <mxCell id="FCriQmf4aYKl-RQymjN2-126" value="&amp;lt;&amp;lt;include&amp;gt;&amp;gt;" style="edgeLabel;html=1;align=center;verticalAlign=middle;resizable=0;points=[];fontColor=#0000FF;fontSize=13;" parent="FCriQmf4aYKl-RQymjN2-125" vertex="1" connectable="0">
          <mxGeometry x="-0.5838" y="1" relative="1" as="geometry">
            <mxPoint x="29" y="-8" as="offset" />
          </mxGeometry>
        </mxCell>
        <mxCell id="FCriQmf4aYKl-RQymjN2-30" value="Actualizarea datelor personale de bază" style="shape=ext;double=1;rounded=0;whiteSpace=wrap;html=1;" parent="1" vertex="1">
          <mxGeometry x="610" y="360" width="120" height="80" as="geometry" />
        </mxCell>
        <mxCell id="FCriQmf4aYKl-RQymjN2-104" style="edgeStyle=orthogonalEdgeStyle;rounded=0;orthogonalLoop=1;jettySize=auto;html=1;exitX=1;exitY=0;exitDx=0;exitDy=0;entryX=1;entryY=1;entryDx=0;entryDy=0;fontColor=#0000FF;dashed=1;strokeColor=#0000FF;" parent="1" source="FCriQmf4aYKl-RQymjN2-31" target="FCriQmf4aYKl-RQymjN2-17" edge="1">
          <mxGeometry relative="1" as="geometry" />
        </mxCell>
        <mxCell id="FCriQmf4aYKl-RQymjN2-105" value="&amp;lt;&amp;lt;include&amp;gt;&amp;gt;" style="edgeLabel;html=1;align=center;verticalAlign=middle;resizable=0;points=[];fontSize=13;fontColor=#0000FF;" parent="FCriQmf4aYKl-RQymjN2-104" vertex="1" connectable="0">
          <mxGeometry x="0.04" y="1" relative="1" as="geometry">
            <mxPoint x="-9" y="1" as="offset" />
          </mxGeometry>
        </mxCell>
        <mxCell id="FCriQmf4aYKl-RQymjN2-31" value="Schimbarea fotografiei de profil" style="shape=ext;double=1;rounded=0;whiteSpace=wrap;html=1;" parent="1" vertex="1">
          <mxGeometry x="375" y="720" width="120" height="80" as="geometry" />
        </mxCell>
        <mxCell id="FCriQmf4aYKl-RQymjN2-127" style="edgeStyle=orthogonalEdgeStyle;rounded=0;orthogonalLoop=1;jettySize=auto;html=1;exitX=0;exitY=1;exitDx=0;exitDy=0;entryX=1;entryY=0;entryDx=0;entryDy=0;strokeColor=#0000FF;dashed=1;" parent="1" source="FCriQmf4aYKl-RQymjN2-32" target="FCriQmf4aYKl-RQymjN2-17" edge="1">
          <mxGeometry relative="1" as="geometry">
            <Array as="points">
              <mxPoint x="590" y="320" />
              <mxPoint x="590" y="590" />
              <mxPoint x="495" y="590" />
            </Array>
          </mxGeometry>
        </mxCell>
        <mxCell id="FCriQmf4aYKl-RQymjN2-32" value="Actualizarea datelor importante (username, email, parolă)" style="shape=ext;double=1;rounded=0;whiteSpace=wrap;html=1;" parent="1" vertex="1">
          <mxGeometry x="610" y="240" width="120" height="80" as="geometry" />
        </mxCell>
        <mxCell id="FCriQmf4aYKl-RQymjN2-33" value="Deconectarea de pe platformă" style="shape=ext;double=1;rounded=0;whiteSpace=wrap;html=1;" parent="1" vertex="1">
          <mxGeometry x="610" y="485" width="120" height="80" as="geometry" />
        </mxCell>
        <mxCell id="FCriQmf4aYKl-RQymjN2-128" style="edgeStyle=orthogonalEdgeStyle;rounded=0;orthogonalLoop=1;jettySize=auto;html=1;exitX=0;exitY=1;exitDx=0;exitDy=0;entryX=1;entryY=0;entryDx=0;entryDy=0;dashed=1;strokeColor=#0000FF;" parent="1" source="FCriQmf4aYKl-RQymjN2-34" target="FCriQmf4aYKl-RQymjN2-17" edge="1">
          <mxGeometry relative="1" as="geometry">
            <Array as="points">
              <mxPoint x="590" y="200" />
              <mxPoint x="590" y="600" />
            </Array>
          </mxGeometry>
        </mxCell>
        <mxCell id="FCriQmf4aYKl-RQymjN2-34" value="Restrictionarea unui utilizator" style="shape=ext;double=1;rounded=0;whiteSpace=wrap;html=1;" parent="1" vertex="1">
          <mxGeometry x="620" y="120" width="110" height="80" as="geometry" />
        </mxCell>
        <mxCell id="FCriQmf4aYKl-RQymjN2-35" value="Vizualizarea auditului compus din acțiunile relevante ce au loc în cadrul aplicației" style="shape=ext;double=1;rounded=0;whiteSpace=wrap;html=1;" parent="1" vertex="1">
          <mxGeometry x="610" y="10" width="120" height="80" as="geometry" />
        </mxCell>
        <mxCell id="FCriQmf4aYKl-RQymjN2-51" style="edgeStyle=orthogonalEdgeStyle;rounded=0;orthogonalLoop=1;jettySize=auto;html=1;entryX=0;entryY=0.5;entryDx=0;entryDy=0;" parent="1" source="FCriQmf4aYKl-RQymjN2-38" target="FCriQmf4aYKl-RQymjN2-23" edge="1">
          <mxGeometry relative="1" as="geometry">
            <Array as="points">
              <mxPoint x="50" y="640" />
            </Array>
          </mxGeometry>
        </mxCell>
        <mxCell id="FCriQmf4aYKl-RQymjN2-38" value="Utilizator anonim" style="text;html=1;align=center;verticalAlign=middle;resizable=0;points=[];autosize=1;strokeColor=none;fillColor=none;" parent="1" vertex="1">
          <mxGeometry x="-5" y="565" width="110" height="30" as="geometry" />
        </mxCell>
        <mxCell id="FCriQmf4aYKl-RQymjN2-54" style="edgeStyle=orthogonalEdgeStyle;rounded=0;orthogonalLoop=1;jettySize=auto;html=1;entryX=1;entryY=0.5;entryDx=0;entryDy=0;strokeColor=#FF3333;" parent="1" source="FCriQmf4aYKl-RQymjN2-39" target="FCriQmf4aYKl-RQymjN2-27" edge="1">
          <mxGeometry relative="1" as="geometry">
            <Array as="points">
              <mxPoint x="800" y="640" />
            </Array>
          </mxGeometry>
        </mxCell>
        <mxCell id="FCriQmf4aYKl-RQymjN2-39" value="&lt;span style=&quot;color: rgb(0, 0, 0); font-family: Helvetica; font-size: 12px; font-style: normal; font-variant-ligatures: normal; font-variant-caps: normal; font-weight: 400; letter-spacing: normal; orphans: 2; text-align: center; text-indent: 0px; text-transform: none; widows: 2; word-spacing: 0px; -webkit-text-stroke-width: 0px; white-space: nowrap; background-color: rgb(251, 251, 251); text-decoration-thickness: initial; text-decoration-style: initial; text-decoration-color: initial; display: inline !important; float: none;&quot;&gt;Administrator&lt;/span&gt;" style="text;whiteSpace=wrap;html=1;" parent="1" vertex="1">
          <mxGeometry x="760" y="565" width="80" height="40" as="geometry" />
        </mxCell>
        <mxCell id="FCriQmf4aYKl-RQymjN2-40" value="&lt;span style=&quot;color: rgb(0, 0, 0); font-family: Helvetica; font-size: 12px; font-style: normal; font-variant-ligatures: normal; font-variant-caps: normal; font-weight: 400; letter-spacing: normal; orphans: 2; text-align: center; text-indent: 0px; text-transform: none; widows: 2; word-spacing: 0px; -webkit-text-stroke-width: 0px; white-space: nowrap; background-color: rgb(251, 251, 251); text-decoration-thickness: initial; text-decoration-style: initial; text-decoration-color: initial; display: inline !important; float: none;&quot;&gt;Utilizator Autentificat&lt;/span&gt;" style="text;whiteSpace=wrap;html=1;" parent="1" vertex="1">
          <mxGeometry x="385" y="1050" width="100" height="40" as="geometry" />
        </mxCell>
      </root>
    </mxGraphModel>
  </diagram>
</mxfile>
